<svg xmlns="http://www.w3.org/2000/svg" xmlns:xlink="http://www.w3.org/1999/xlink" width="500" zoomAndPan="magnify" viewBox="0 0 375 374.999991" height="500" preserveAspectRatio="xMidYMid meet" version="1.0"><defs><clipPath id="97a006ac09"><path d="M 16.710938 16.710938 L 358.289062 16.710938 L 358.289062 358.289062 L 16.710938 358.289062 Z M 16.710938 16.710938 " clip-rule="nonzero"/></clipPath><clipPath id="3c80253c80"><path d="M 187.5 16.710938 C 93.175781 16.710938 16.710938 93.175781 16.710938 187.5 C 16.710938 281.824219 93.175781 358.289062 187.5 358.289062 C 281.824219 358.289062 358.289062 281.824219 358.289062 187.5 C 358.289062 93.175781 281.824219 16.710938 187.5 16.710938 " clip-rule="nonzero"/></clipPath><clipPath id="e808f1df15"><path d="M 88.386719 73.503906 L 296.136719 73.503906 L 296.136719 300.753906 L 88.386719 300.753906 Z M 88.386719 73.503906 " clip-rule="nonzero"/></clipPath></defs><g clip-path="url(#97a006ac09)"><g clip-path="url(#3c80253c80)"><path fill="#0099ff" d="M 16.710938 16.710938 L 358.289062 16.710938 L 358.289062 358.289062 L 16.710938 358.289062 Z M 16.710938 16.710938 " fill-opacity="1" fill-rule="nonzero"/></g></g><g clip-path="url(#e808f1df15)"><path fill="#000000" d="M 286.242188 113.070312 L 241.726562 113.070312 L 241.726562 106.109375 C 241.722656 105.042969 241.671875 103.980469 241.566406 102.921875 C 241.457031 101.859375 241.300781 100.808594 241.089844 99.765625 C 240.882812 98.71875 240.621094 97.6875 240.3125 96.667969 C 240 95.648438 239.640625 94.648438 239.230469 93.664062 C 238.824219 92.679688 238.367188 91.71875 237.863281 90.78125 C 237.359375 89.839844 236.8125 88.929688 236.21875 88.042969 C 235.625 87.160156 234.988281 86.304688 234.3125 85.480469 C 233.632812 84.65625 232.917969 83.871094 232.164062 83.117188 C 231.410156 82.363281 230.621094 81.648438 229.796875 80.972656 C 228.96875 80.296875 228.113281 79.664062 227.226562 79.070312 C 226.339844 78.480469 225.425781 77.929688 224.484375 77.429688 C 223.542969 76.925781 222.582031 76.46875 221.597656 76.0625 C 220.609375 75.652344 219.605469 75.292969 218.585938 74.984375 C 217.566406 74.675781 216.53125 74.414062 215.484375 74.207031 C 214.4375 73.996094 213.382812 73.839844 212.324219 73.734375 C 211.261719 73.628906 210.195312 73.574219 209.128906 73.570312 L 175.394531 73.570312 C 174.328125 73.574219 173.261719 73.628906 172.199219 73.734375 C 171.140625 73.839844 170.085938 73.996094 169.039062 74.207031 C 167.992188 74.414062 166.957031 74.675781 165.9375 74.984375 C 164.917969 75.292969 163.914062 75.652344 162.929688 76.0625 C 161.941406 76.46875 160.980469 76.925781 160.039062 77.429688 C 159.097656 77.929688 158.183594 78.480469 157.296875 79.070312 C 156.410156 79.664062 155.554688 80.296875 154.730469 80.972656 C 153.902344 81.648438 153.113281 82.363281 152.359375 83.117188 C 151.605469 83.871094 150.890625 84.65625 150.210938 85.480469 C 149.535156 86.304688 148.898438 87.160156 148.304688 88.042969 C 147.714844 88.929688 147.164062 89.839844 146.660156 90.78125 C 146.15625 91.71875 145.703125 92.679688 145.292969 93.664062 C 144.882812 94.648438 144.523438 95.648438 144.210938 96.667969 C 143.902344 97.6875 143.640625 98.71875 143.433594 99.765625 C 143.222656 100.808594 143.066406 101.859375 142.960938 102.921875 C 142.851562 103.980469 142.800781 105.042969 142.796875 106.109375 L 142.796875 113.070312 L 98.28125 113.070312 C 97.628906 113.070312 96.988281 113.132812 96.351562 113.257812 C 95.710938 113.386719 95.09375 113.574219 94.492188 113.820312 C 93.894531 114.070312 93.324219 114.375 92.785156 114.734375 C 92.242188 115.09375 91.742188 115.503906 91.285156 115.960938 C 90.824219 116.421875 90.414062 116.917969 90.054688 117.457031 C 89.691406 117.996094 89.386719 118.566406 89.140625 119.164062 C 88.890625 119.765625 88.703125 120.382812 88.578125 121.019531 C 88.449219 121.652344 88.386719 122.296875 88.386719 122.945312 C 88.386719 123.59375 88.449219 124.234375 88.578125 124.871094 C 88.703125 125.507812 88.890625 126.125 89.140625 126.722656 C 89.386719 127.320312 89.691406 127.890625 90.054688 128.429688 C 90.414062 128.96875 90.824219 129.46875 91.285156 129.925781 C 91.742188 130.386719 92.242188 130.792969 92.785156 131.15625 C 93.324219 131.515625 93.894531 131.820312 94.492188 132.066406 C 95.09375 132.316406 95.710938 132.503906 96.351562 132.628906 C 96.988281 132.753906 97.628906 132.820312 98.28125 132.820312 L 113.117188 132.820312 L 113.117188 268 C 113.121094 269.070312 113.175781 270.140625 113.28125 271.207031 C 113.386719 272.269531 113.546875 273.328125 113.757812 274.378906 C 113.96875 275.429688 114.230469 276.464844 114.542969 277.492188 C 114.855469 278.515625 115.21875 279.523438 115.628906 280.511719 C 116.042969 281.5 116.5 282.46875 117.007812 283.410156 C 117.515625 284.355469 118.066406 285.273438 118.664062 286.164062 C 119.261719 287.050781 119.898438 287.910156 120.582031 288.738281 C 121.261719 289.566406 121.984375 290.359375 122.742188 291.113281 C 123.5 291.871094 124.296875 292.589844 125.125 293.269531 C 125.957031 293.945312 126.816406 294.582031 127.710938 295.179688 C 128.601562 295.773438 129.523438 296.320312 130.46875 296.828125 C 131.414062 297.332031 132.382812 297.789062 133.375 298.199219 C 134.367188 298.605469 135.375 298.96875 136.402344 299.277344 C 137.429688 299.589844 138.46875 299.847656 139.523438 300.058594 C 140.574219 300.265625 141.632812 300.421875 142.703125 300.527344 C 143.769531 300.632812 144.839844 300.683594 145.914062 300.683594 L 238.660156 300.683594 C 239.730469 300.683594 240.800781 300.628906 241.867188 300.523438 C 242.933594 300.417969 243.992188 300.257812 245.042969 300.046875 C 246.09375 299.839844 247.132812 299.578125 248.160156 299.265625 C 249.183594 298.953125 250.191406 298.59375 251.183594 298.183594 C 252.171875 297.773438 253.140625 297.316406 254.085938 296.8125 C 255.03125 296.304688 255.949219 295.753906 256.839844 295.160156 C 257.730469 294.566406 258.589844 293.929688 259.417969 293.25 C 260.25 292.570312 261.042969 291.855469 261.800781 291.097656 C 262.558594 290.339844 263.277344 289.546875 263.957031 288.722656 C 264.636719 287.894531 265.273438 287.035156 265.871094 286.148438 C 266.46875 285.257812 267.019531 284.339844 267.523438 283.398438 C 268.03125 282.453125 268.488281 281.488281 268.898438 280.5 C 269.308594 279.511719 269.671875 278.507812 269.984375 277.480469 C 270.296875 276.457031 270.558594 275.421875 270.765625 274.375 C 270.976562 273.324219 271.136719 272.265625 271.242188 271.203125 C 271.347656 270.136719 271.402344 269.070312 271.40625 268 L 271.40625 132.820312 L 286.242188 132.820312 C 286.894531 132.820312 287.535156 132.753906 288.175781 132.628906 C 288.8125 132.503906 289.429688 132.316406 290.03125 132.066406 C 290.628906 131.820312 291.199219 131.515625 291.738281 131.15625 C 292.28125 130.792969 292.78125 130.386719 293.238281 129.925781 C 293.699219 129.46875 294.109375 128.96875 294.46875 128.429688 C 294.832031 127.890625 295.136719 127.320312 295.382812 126.722656 C 295.632812 126.125 295.820312 125.507812 295.945312 124.871094 C 296.074219 124.234375 296.136719 123.59375 296.136719 122.945312 C 296.136719 122.296875 296.074219 121.652344 295.945312 121.019531 C 295.820312 120.382812 295.632812 119.765625 295.382812 119.164062 C 295.136719 118.566406 294.832031 117.996094 294.46875 117.457031 C 294.109375 116.917969 293.699219 116.421875 293.238281 115.960938 C 292.78125 115.503906 292.28125 115.09375 291.738281 114.734375 C 291.199219 114.375 290.628906 114.070312 290.03125 113.820312 C 289.429688 113.574219 288.8125 113.386719 288.175781 113.257812 C 287.535156 113.132812 286.894531 113.070312 286.242188 113.070312 Z M 162.582031 106.109375 C 162.582031 105.269531 162.664062 104.4375 162.828125 103.613281 C 162.992188 102.789062 163.238281 101.992188 163.558594 101.214844 C 163.878906 100.4375 164.273438 99.703125 164.742188 99.003906 C 165.210938 98.304688 165.742188 97.660156 166.335938 97.066406 C 166.929688 96.472656 167.578125 95.941406 168.277344 95.476562 C 168.976562 95.007812 169.714844 94.617188 170.492188 94.292969 C 171.269531 93.972656 172.070312 93.730469 172.894531 93.566406 C 173.71875 93.402344 174.554688 93.320312 175.394531 93.320312 L 209.128906 93.320312 C 209.96875 93.320312 210.804688 93.402344 211.628906 93.566406 C 212.453125 93.730469 213.253906 93.972656 214.03125 94.292969 C 214.808594 94.617188 215.546875 95.007812 216.246094 95.476562 C 216.945312 95.941406 217.59375 96.472656 218.1875 97.066406 C 218.78125 97.660156 219.3125 98.304688 219.78125 99.003906 C 220.25 99.703125 220.644531 100.4375 220.964844 101.214844 C 221.289062 101.992188 221.53125 102.789062 221.695312 103.613281 C 221.859375 104.4375 221.941406 105.269531 221.941406 106.109375 L 221.941406 113.070312 L 162.582031 113.070312 Z M 251.617188 268 C 251.617188 268.847656 251.53125 269.6875 251.363281 270.519531 C 251.195312 271.351562 250.945312 272.160156 250.621094 272.941406 C 250.292969 273.726562 249.894531 274.46875 249.417969 275.175781 C 248.945312 275.878906 248.410156 276.53125 247.808594 277.132812 C 247.207031 277.734375 246.554688 278.269531 245.847656 278.742188 C 245.140625 279.210938 244.394531 279.613281 243.609375 279.9375 C 242.828125 280.265625 242.015625 280.511719 241.183594 280.679688 C 240.351562 280.847656 239.507812 280.933594 238.660156 280.9375 L 145.914062 280.9375 C 145.0625 280.9375 144.21875 280.851562 143.382812 280.6875 C 142.546875 280.523438 141.734375 280.277344 140.945312 279.953125 C 140.160156 279.628906 139.410156 279.230469 138.703125 278.757812 C 137.992188 278.285156 137.335938 277.75 136.734375 277.148438 C 136.128906 276.550781 135.589844 275.894531 135.113281 275.191406 C 134.640625 274.484375 134.238281 273.738281 133.910156 272.953125 C 133.582031 272.167969 133.332031 271.359375 133.164062 270.527344 C 132.992188 269.691406 132.90625 268.851562 132.90625 268 L 132.90625 132.820312 L 251.617188 132.820312 Z M 251.617188 268 " fill-opacity="1" fill-rule="nonzero"/></g><path fill="#000000" d="M 167.53125 154.988281 C 166.878906 154.988281 166.238281 155.050781 165.601562 155.175781 C 164.960938 155.304688 164.34375 155.492188 163.742188 155.738281 C 163.144531 155.988281 162.574219 156.289062 162.035156 156.652344 C 161.492188 157.011719 160.992188 157.421875 160.535156 157.878906 C 160.074219 158.335938 159.664062 158.835938 159.304688 159.375 C 158.941406 159.914062 158.636719 160.484375 158.390625 161.082031 C 158.140625 161.683594 157.953125 162.300781 157.828125 162.933594 C 157.699219 163.570312 157.636719 164.214844 157.636719 164.863281 L 157.636719 253.730469 C 157.636719 254.378906 157.699219 255.023438 157.828125 255.65625 C 157.953125 256.292969 158.140625 256.910156 158.390625 257.511719 C 158.636719 258.109375 158.941406 258.679688 159.304688 259.21875 C 159.664062 259.757812 160.074219 260.253906 160.535156 260.714844 C 160.992188 261.171875 161.492188 261.582031 162.035156 261.941406 C 162.574219 262.300781 163.144531 262.605469 163.742188 262.855469 C 164.34375 263.101562 164.960938 263.289062 165.601562 263.417969 C 166.238281 263.542969 166.878906 263.605469 167.53125 263.605469 C 168.179688 263.605469 168.824219 263.542969 169.460938 263.417969 C 170.097656 263.289062 170.714844 263.101562 171.316406 262.855469 C 171.914062 262.605469 172.484375 262.300781 173.027344 261.941406 C 173.566406 261.582031 174.066406 261.171875 174.523438 260.714844 C 174.984375 260.253906 175.394531 259.757812 175.753906 259.21875 C 176.117188 258.679688 176.421875 258.109375 176.667969 257.511719 C 176.917969 256.910156 177.105469 256.292969 177.234375 255.65625 C 177.359375 255.023438 177.421875 254.378906 177.421875 253.730469 L 177.421875 164.863281 C 177.421875 164.214844 177.359375 163.570312 177.234375 162.933594 C 177.105469 162.300781 176.917969 161.683594 176.667969 161.082031 C 176.421875 160.484375 176.117188 159.914062 175.753906 159.375 C 175.394531 158.835938 174.984375 158.335938 174.523438 157.878906 C 174.066406 157.421875 173.566406 157.011719 173.027344 156.652344 C 172.484375 156.289062 171.914062 155.988281 171.316406 155.738281 C 170.714844 155.492188 170.097656 155.304688 169.460938 155.175781 C 168.824219 155.050781 168.179688 154.988281 167.53125 154.988281 Z M 167.53125 154.988281 " fill-opacity="1" fill-rule="nonzero"/><path fill="#000000" d="M 216.992188 154.988281 C 216.34375 154.988281 215.699219 155.050781 215.0625 155.175781 C 214.425781 155.304688 213.808594 155.492188 213.207031 155.738281 C 212.609375 155.988281 212.039062 156.289062 211.496094 156.652344 C 210.957031 157.011719 210.457031 157.421875 210 157.878906 C 209.539062 158.335938 209.128906 158.835938 208.769531 159.375 C 208.40625 159.914062 208.101562 160.484375 207.855469 161.082031 C 207.605469 161.683594 207.417969 162.300781 207.292969 162.933594 C 207.164062 163.570312 207.101562 164.214844 207.101562 164.863281 L 207.101562 253.730469 C 207.101562 254.378906 207.164062 255.023438 207.292969 255.65625 C 207.417969 256.292969 207.605469 256.910156 207.855469 257.511719 C 208.101562 258.109375 208.40625 258.679688 208.769531 259.21875 C 209.128906 259.757812 209.539062 260.253906 210 260.714844 C 210.457031 261.171875 210.957031 261.582031 211.496094 261.941406 C 212.039062 262.300781 212.609375 262.605469 213.207031 262.855469 C 213.808594 263.101562 214.425781 263.289062 215.0625 263.417969 C 215.699219 263.542969 216.34375 263.605469 216.992188 263.605469 C 217.644531 263.605469 218.285156 263.542969 218.925781 263.417969 C 219.5625 263.289062 220.179688 263.101562 220.78125 262.855469 C 221.378906 262.605469 221.949219 262.300781 222.488281 261.941406 C 223.03125 261.582031 223.53125 261.171875 223.988281 260.714844 C 224.449219 260.253906 224.859375 259.757812 225.21875 259.21875 C 225.582031 258.679688 225.886719 258.109375 226.132812 257.511719 C 226.382812 256.910156 226.570312 256.292969 226.695312 255.65625 C 226.824219 255.023438 226.886719 254.378906 226.886719 253.730469 L 226.886719 164.863281 C 226.886719 164.214844 226.824219 163.570312 226.695312 162.933594 C 226.570312 162.300781 226.382812 161.683594 226.132812 161.082031 C 225.886719 160.484375 225.582031 159.914062 225.21875 159.375 C 224.859375 158.835938 224.449219 158.335938 223.988281 157.878906 C 223.53125 157.421875 223.03125 157.011719 222.488281 156.652344 C 221.949219 156.289062 221.378906 155.988281 220.78125 155.738281 C 220.179688 155.492188 219.5625 155.304688 218.925781 155.175781 C 218.285156 155.050781 217.644531 154.988281 216.992188 154.988281 Z M 216.992188 154.988281 " fill-opacity="1" fill-rule="nonzero"/></svg>