<svg xmlns="http://www.w3.org/2000/svg" xmlns:xlink="http://www.w3.org/1999/xlink" width="559" zoomAndPan="magnify" viewBox="0 0 419.25 297.75" height="396" preserveAspectRatio="xMidYMid meet" version="1.0"><defs><clipPath id="f31eae732c"><path d="M 102.34375 41.578125 L 316.714844 41.578125 L 316.714844 255.949219 L 102.34375 255.949219 Z M 102.34375 41.578125 " clip-rule="nonzero"/></clipPath></defs><g clip-path="url(#f31eae732c)"><path fill="#000000" d="M 209.53125 41.578125 C 150.429688 41.578125 102.34375 89.660156 102.34375 148.761719 C 102.34375 207.863281 150.429688 255.949219 209.53125 255.949219 C 268.632812 255.949219 316.714844 207.863281 316.714844 148.761719 C 316.714844 89.660156 268.632812 41.578125 209.53125 41.578125 Z M 209.53125 241.65625 C 158.304688 241.65625 116.636719 199.988281 116.636719 148.761719 C 116.636719 97.539062 158.304688 55.867188 209.53125 55.867188 C 260.753906 55.867188 302.425781 97.539062 302.425781 148.761719 C 302.425781 199.988281 260.753906 241.65625 209.53125 241.65625 Z M 209.53125 241.65625 " fill-opacity="1" fill-rule="nonzero"/></g><path fill="#000000" d="M 246.914062 141.617188 L 216.675781 141.617188 L 216.675781 111.378906 C 216.675781 107.429688 213.476562 104.230469 209.53125 104.230469 C 205.582031 104.230469 202.382812 107.429688 202.382812 111.378906 L 202.382812 141.617188 L 172.144531 141.617188 C 168.199219 141.617188 165 144.816406 165 148.761719 C 165 152.707031 168.199219 155.910156 172.144531 155.910156 L 202.382812 155.910156 L 202.382812 186.148438 C 202.382812 190.09375 205.582031 193.292969 209.53125 193.292969 C 213.476562 193.292969 216.675781 190.09375 216.675781 186.148438 L 216.675781 155.910156 L 246.914062 155.910156 C 250.863281 155.910156 254.0625 152.707031 254.0625 148.761719 C 254.0625 144.816406 250.863281 141.617188 246.914062 141.617188 Z M 246.914062 141.617188 " fill-opacity="1" fill-rule="nonzero"/></svg>