<svg xmlns="http://www.w3.org/2000/svg" xmlns:xlink="http://www.w3.org/1999/xlink" width="500" zoomAndPan="magnify" viewBox="0 0 375 374.999991" height="500" preserveAspectRatio="xMidYMid meet" version="1.0"><defs><clipPath id="793b5b6250"><path d="M 86 88 L 288 88 L 288 289.261719 L 86 289.261719 Z M 86 88 " clip-rule="nonzero"/></clipPath><clipPath id="12eae9efb5"><path d="M 187.5 0 C 83.945312 0 0 83.945312 0 187.5 C 0 291.054688 83.945312 375 187.5 375 C 291.054688 375 375 291.054688 375 187.5 C 375 83.945312 291.054688 0 187.5 0 " clip-rule="nonzero"/></clipPath></defs><g clip-path="url(#793b5b6250)"><path fill="#000000" d="M 215.621094 189.042969 L 281.636719 122.992188 C 289.464844 115.167969 289.464844 102.46875 281.636719 94.636719 C 273.808594 86.808594 261.128906 86.808594 253.300781 94.636719 L 187.285156 160.683594 L 121.265625 94.640625 C 113.445312 86.808594 100.753906 86.808594 92.925781 94.640625 C 85.101562 102.46875 85.101562 115.167969 92.925781 123 L 158.941406 189.042969 L 92.765625 255.253906 C 84.941406 263.078125 84.941406 275.777344 92.765625 283.601562 C 96.671875 287.519531 101.808594 289.476562 106.933594 289.476562 C 112.054688 289.476562 117.191406 287.519531 121.105469 283.601562 L 187.277344 217.398438 L 253.289062 283.441406 C 257.203125 287.359375 262.332031 289.316406 267.457031 289.316406 C 272.578125 289.316406 277.710938 287.359375 281.625 283.441406 C 289.453125 275.617188 289.453125 262.917969 281.625 255.09375 Z M 215.621094 189.042969 " fill-opacity="1" fill-rule="nonzero"/></g><g clip-path="url(#12eae9efb5)"><path stroke-linecap="butt" transform="matrix(0.75, 0, 0, 0.75, 0.0000045, 0)" fill="none" stroke-linejoin="miter" d="M 249.999994 0 C 111.927078 0 -0.000006 111.927084 -0.000006 250 C -0.000006 388.072917 111.927078 500.000001 249.999994 500.000001 C 388.072911 500.000001 499.999995 388.072917 499.999995 250 C 499.999995 111.927084 388.072911 0 249.999994 0 " stroke="#000000" stroke-width="100" stroke-opacity="1" stroke-miterlimit="4"/></g></svg>